<svg xmlns="http://www.w3.org/2000/svg" viewBox="0 0 1600 1000" role="img" aria-label="Local music stage illustration"><defs><linearGradient id="wall" x1="0" x2="1" y1="0" y2="1"><stop offset="0" stop-color="#263832"/><stop offset="0.55" stop-color="#3f594f"/><stop offset="1" stop-color="#171d20"/></linearGradient><radialGradient id="lamp" cx="50%" cy="40%" r="55%"><stop offset="0" stop-color="#f4c46d" stop-opacity=".95"/><stop offset=".55" stop-color="#d99b38" stop-opacity=".3"/><stop offset="1" stop-color="#d99b38" stop-opacity="0"/></radialGradient></defs><rect width="1600" height="1000" fill="url(#wall)"/><circle cx="1230" cy="245" r="330" fill="url(#lamp)" opacity=".55"/><circle cx="1040" cy="430" r="170" fill="#b75b63" opacity=".24"/><rect x="0" y="710" width="1600" height="290" fill="#171d20"/><rect x="120" y="680" width="1360" height="58" rx="14" fill="#26302d"/><g fill="none" stroke="#d99b38" stroke-width="12" opacity=".55"><path d="M170 305c130-80 257-79 382 0s252 80 382 0 258-80 386 0"/><path d="M210 380c98-58 194-58 290 0s194 58 292 0 194-58 292 0"/></g><g transform="translate(1040 520)"><rect x="0" y="0" width="120" height="210" rx="18" fill="#101316"/><circle cx="60" cy="62" r="36" fill="#2f6f5e"/><circle cx="60" cy="62" r="16" fill="#111719"/><circle cx="60" cy="148" r="44" fill="#1f2428"/><circle cx="60" cy="148" r="18" fill="#111719"/></g><g transform="translate(430 470)" stroke="#f5f0e8" stroke-width="15" stroke-linecap="round"><path d="M70 190V38"/><path d="M70 38c90 4 128 50 125 108"/><path d="M70 88c66 2 92 33 90 76"/><path d="M35 292l35-102 35 102"/><path d="M12 292h116"/></g><g transform="translate(640 455)" stroke="#f5f0e8" stroke-width="15" stroke-linecap="round"><path d="M72 200V22"/><path d="M72 22h118"/><path d="M190 22v172"/><path d="M35 300l37-100 37 100"/><path d="M154 300l36-106 38 106"/><path d="M12 300h116"/><path d="M132 300h120"/></g><g fill="#101316" opacity=".8"><ellipse cx="730" cy="780" rx="360" ry="46"/><ellipse cx="1110" cy="760" rx="180" ry="34"/></g></svg>
